<svg width="170" height="54" viewBox="0 0 170 54" fill="none" xmlns="http://www.w3.org/2000/svg">
<g clip-path="url(#clip0_144_77)">
<path d="M26.732 53.4642C41.4957 53.4642 53.4642 41.4957 53.4642 26.732C53.4642 11.9684 41.4957 0 26.732 0C11.9684 0 0 11.9684 0 26.732C0 41.4957 11.9684 53.4642 26.732 53.4642Z" fill="#FDBD10"/>
<path d="M35.4274 31.7271C33.6699 34.7796 30.4324 36.7221 26.7325 36.7221C21.1825 36.7221 16.7426 32.1896 16.7426 26.7322C16.7426 21.2748 21.2751 16.7424 26.7325 16.7424C30.4324 16.7424 33.6699 18.7774 35.4274 21.7373L41.1622 18.2224C38.2023 13.32 32.9299 10.0825 26.825 10.0825C17.5751 10.0825 10.0828 17.5748 10.0828 26.8248C10.0828 36.0745 17.4827 43.4745 26.7325 43.4745C33.0223 43.4745 38.4798 40.052 41.3472 34.9645L35.4274 31.7271Z" fill="white"/>
<path d="M64.5641 28.8595C64.5641 23.2172 69.559 18.4072 75.4788 18.4072C78.7164 18.4072 81.3988 19.7022 83.3413 21.8297L79.5489 24.9746C78.5313 23.8646 76.9589 23.1247 75.3864 23.1247C72.4265 23.1247 70.0215 25.7145 70.0215 28.767C70.0215 31.912 72.5189 34.502 75.4788 34.502C77.0514 34.502 78.6238 33.7619 79.7338 32.5595L83.4338 35.7044C81.4913 37.8319 78.7164 39.2194 75.4788 39.2194C69.559 39.3118 64.5641 34.502 64.5641 28.8595Z" fill="#F9F9F9"/>
<path d="M84.3578 28.8595C84.3578 23.2172 89.3528 18.4072 95.2726 18.4072C101.193 18.4072 106.095 23.1247 106.095 28.8595C106.095 34.502 101.193 39.3118 95.2726 39.3118C89.3528 39.3118 84.3578 34.502 84.3578 28.8595ZM100.73 28.8595C100.73 25.8071 98.2325 23.2172 95.2726 23.2172C92.2201 23.2172 89.7227 25.8071 89.7227 28.8595C89.7227 31.912 92.2201 34.5944 95.2726 34.5944C98.2325 34.5944 100.73 31.912 100.73 28.8595Z" fill="#F9F9F9"/>
<path d="M126.63 26.9171V38.8494H121.173V36.8144C119.785 38.4793 117.473 39.3118 115.345 39.3118C111.09 39.3118 107.853 36.722 107.853 32.9294C107.853 28.9521 111.553 26.2695 116.178 26.2695C117.843 26.2695 119.6 26.6396 121.265 27.2871V26.9171C121.265 24.7896 119.97 22.9397 116.64 22.9397C114.79 22.9397 113.033 23.5871 111.46 24.327L109.61 20.6272C112.385 19.2397 115.16 18.4072 117.935 18.4072C123.115 18.4072 126.63 21.7372 126.63 26.9171ZM121.173 32.5595V30.7095C119.878 30.247 118.398 29.9695 116.918 29.9695C114.883 29.9695 113.218 31.172 113.218 32.7445C113.218 34.4095 114.605 35.3345 116.548 35.3345C118.768 35.4269 120.803 34.4095 121.173 32.5595Z" fill="#F9F9F9"/>
<path d="M129.311 28.8595C129.311 23.2172 134.306 18.4072 140.227 18.4072C143.464 18.4072 146.146 19.7022 148.088 21.8297L144.389 25.0671C143.371 23.9571 141.799 23.2172 140.227 23.2172C137.266 23.2172 134.861 25.8071 134.861 28.8595C134.861 32.0045 137.359 34.5944 140.319 34.5944C141.891 34.5944 143.464 33.8545 144.574 32.6519L148.273 35.7969C146.331 37.9244 143.556 39.3118 140.319 39.3118C134.306 39.3118 129.311 34.502 129.311 28.8595Z" fill="#F9F9F9"/>
<path d="M169.641 26.1771V38.8494H164.183V27.3795C164.183 24.8822 162.611 23.2172 160.392 23.2172C158.079 23.2172 156.229 24.8822 156.229 27.102V38.8494H150.587V11.8398H156.229V21.2747C157.432 19.5172 159.651 18.4072 162.241 18.4072C166.496 18.4072 169.641 21.6447 169.641 26.1771Z" fill="#F9F9F9"/>
</g>
<defs>
<clipPath id="clip0_144_77">
<rect width="169.642" height="53.789" fill="white"/>
</clipPath>
</defs>
</svg>
