<svg width="20" height="20" viewBox="0 0 20 20" fill="none" xmlns="http://www.w3.org/2000/svg">
<g clip-path="url(#clip0_142_321)">
<path d="M7.03073 13.3157C6.77179 13.8666 6.33192 14.3121 5.78438 14.5781C5.23685 14.844 4.61473 14.9143 4.02166 14.7772C3.42859 14.6402 2.90039 14.3041 2.52505 13.8248C2.14972 13.3456 1.94992 12.7523 1.95894 12.1437C1.96796 11.535 2.18525 10.9479 2.57462 10.48C2.96398 10.0121 3.50191 9.69177 4.09878 9.57235C4.69565 9.45293 5.31542 9.54163 5.85483 9.82367C6.39424 10.1057 6.82073 10.5641 7.06323 11.1224H9.11573C8.85632 10.0218 8.20263 9.05437 7.27827 8.40309C6.35391 7.7518 5.22294 7.46179 4.09923 7.58788C2.97552 7.71398 1.93696 8.24744 1.17994 9.0874C0.422911 9.92736 -0.000108275 11.0156 -0.00913002 12.1463C-0.0181518 13.277 0.387449 14.3719 1.13098 15.2238C1.8745 16.0757 2.90442 16.6257 4.02597 16.7697C5.14753 16.9137 6.28297 16.6418 7.21761 16.0053C8.15225 15.3689 8.8213 14.412 9.09823 13.3157H7.03073ZM15.3782 7.56238C15.2641 7.56238 15.1507 7.56905 15.0382 7.57738C14.2231 7.63727 13.4388 7.91405 12.7666 8.37905V3.19238H10.8832V16.489H12.7791V15.9999C13.3771 16.4066 14.0622 16.6673 14.7793 16.761C15.4964 16.8546 16.2255 16.7787 16.9079 16.5392C17.5903 16.2997 18.207 15.9034 18.7083 15.3821C19.2096 14.8609 19.5816 14.2292 19.7943 13.538C20.007 12.8468 20.0544 12.1153 19.9329 11.4024C19.8113 10.6894 19.5241 10.015 19.0944 9.43333C18.6646 8.85164 18.1044 8.37894 17.4587 8.05327C16.8129 7.72759 16.0998 7.55803 15.3766 7.55822L15.3782 7.56238ZM18.0166 12.539C18.0166 12.5665 18.0082 12.5949 18.0041 12.6224C17.9861 12.7324 17.9616 12.8412 17.9307 12.9482V12.9582C17.8949 13.072 17.8518 13.1834 17.8016 13.2915L17.7799 13.3332C17.5097 13.8948 17.052 14.3446 16.4857 14.6049C16.3173 14.683 16.141 14.7431 15.9599 14.784H15.9524C15.8691 14.8024 15.7857 14.8157 15.7024 14.8265C15.6907 14.8265 15.6791 14.8266 15.6666 14.8315C15.5711 14.8423 15.4751 14.8476 15.3791 14.8474C15.2589 14.8465 15.1389 14.8376 15.0199 14.8207L14.9366 14.8082C14.703 14.7687 14.4758 14.6983 14.2607 14.599L14.2107 14.5749C13.9947 14.4688 13.794 14.334 13.6141 14.1741L13.5932 14.1557C13.4109 13.9904 13.2522 13.8009 13.1216 13.5924L13.1107 13.574C13.0459 13.4686 12.9882 13.3589 12.9382 13.2457C12.7867 12.8991 12.7112 12.5241 12.7168 12.1459C12.7224 11.7677 12.809 11.3951 12.9707 11.0532C13.1663 10.6387 13.4655 10.2816 13.8393 10.0164C14.2131 9.75114 14.649 9.58674 15.1049 9.53905C15.1962 9.52774 15.288 9.52106 15.3799 9.51905C16.0871 9.51905 16.7654 9.8 17.2655 10.3001C17.7656 10.8002 18.0466 11.4785 18.0466 12.1857C18.0445 12.304 18.0345 12.4221 18.0166 12.539Z" fill="#ACBABF"/>
</g>
<defs>
<clipPath id="clip0_142_321">
<rect width="20" height="20" fill="white"/>
</clipPath>
</defs>
</svg>
