<svg width="43" height="43" viewBox="0 0 43 43" fill="none" xmlns="http://www.w3.org/2000/svg">
<path d="M19.5 1.12C30.64 0.15 40.45 8.42 41.38 19.56C42.32 30.7 34.02 40.49 22.88 41.39C11.78 42.29 2.05001 34.04 1.11001 22.94C0.180008 11.84 8.40001 2.08 19.5 1.12Z" fill="#00C4CA" stroke="white" stroke-width="2.08"/>
<path d="M15.24 23.52C18.36 23.22 20.97 25.11 23.66 26.4C26.63 27.83 28.79 27.27 30.15 24.14C30.74 24.53 31.87 25.14 32.51 25.46C31.27 27.98 30.07 29.46 27.2 29.98C24.27 30.18 21.92 28.7 19.43 27.38C16.18 25.65 14 25.87 12.34 29.33C11.68 28.94 10.62 28.39 9.92999 28.07C11.14 25.5 12.33 24.03 15.23 23.52H15.24Z" fill="white"/>
<path d="M15.58 14.3C18.31 14.04 21.19 15.98 23.58 17.14C26.61 18.61 28.72 18.14 30.16 14.92C30.79 15.34 31.83 15.87 32.51 16.26C31.26 18.76 30.01 20.37 27.07 20.76C23.93 20.88 21.72 19.32 19.04 17.97C15.92 16.39 13.82 16.91 12.29 20.12C11.7 19.74 10.57 19.16 9.92999 18.84C11.17 16.23 12.55 14.56 15.57 14.3H15.58Z" fill="white"/>
</svg>
