<svg width="20" height="20" viewBox="0 0 20 20" fill="none" xmlns="http://www.w3.org/2000/svg">
<path d="M14.1666 1.6665H5.83329C3.53211 1.6665 1.66663 3.53198 1.66663 5.83317V14.1665C1.66663 16.4677 3.53211 18.3332 5.83329 18.3332H14.1666C16.4678 18.3332 18.3333 16.4677 18.3333 14.1665V5.83317C18.3333 3.53198 16.4678 1.6665 14.1666 1.6665Z" stroke="#ACBABF" stroke-width="1.66667" stroke-linecap="round" stroke-linejoin="round"/>
<path d="M13.3334 9.47476C13.4362 10.1683 13.3178 10.8766 12.9948 11.4989C12.6719 12.1213 12.161 12.6259 11.5347 12.9412C10.9085 13.2564 10.1987 13.3661 9.50653 13.2547C8.81431 13.1433 8.17484 12.8165 7.67907 12.3207C7.1833 11.825 6.85648 11.1855 6.7451 10.4933C6.63371 9.80106 6.74343 9.09134 7.05865 8.46507C7.37386 7.83881 7.87853 7.32788 8.50086 7.00496C9.12319 6.68205 9.8315 6.56359 10.525 6.66643C11.2325 6.77133 11.8874 7.10098 12.3931 7.60669C12.8988 8.11239 13.2285 8.76733 13.3334 9.47476Z" stroke="#ACBABF" stroke-width="1.66667" stroke-linecap="round" stroke-linejoin="round"/>
<path d="M14.5834 5.4165H14.5917" stroke="#ACBABF" stroke-width="1.66667" stroke-linecap="round" stroke-linejoin="round"/>
</svg>
