<svg width="48" height="48" viewBox="0 0 48 48" fill="none" xmlns="http://www.w3.org/2000/svg">
<path d="M0 16C0 7.16344 7.16344 0 16 0H32C40.8366 0 48 7.16344 48 16V32C48 40.8366 40.8366 48 32 48H16C7.16344 48 0 40.8366 0 32V16Z" fill="#00C4CC" fill-opacity="0.1"/>
<path d="M14 15H34" stroke="#00C4CC" stroke-width="2" stroke-linecap="round" stroke-linejoin="round"/>
<path d="M33 15V26C33 26.5304 32.7893 27.0391 32.4142 27.4142C32.0391 27.7893 31.5304 28 31 28H17C16.4696 28 15.9609 27.7893 15.5858 27.4142C15.2107 27.0391 15 26.5304 15 26V15" stroke="#00C4CC" stroke-width="2" stroke-linecap="round" stroke-linejoin="round"/>
<path d="M19 33L24 28L29 33" stroke="#00C4CC" stroke-width="2" stroke-linecap="round" stroke-linejoin="round"/>
</svg>
