<svg width="21" height="21" viewBox="0 0 21 21" fill="none" xmlns="http://www.w3.org/2000/svg">
<path d="M10.19 11.37L1.44667 20.1133C1.29111 20.2689 1.1 20.3522 0.873333 20.3633C0.646666 20.3744 0.444444 20.2911 0.266666 20.1133C0.0888886 19.9356 0 19.7389 0 19.5233C0 19.3078 0.0888886 19.1111 0.266666 18.9333L9.01 10.19L0.266666 1.44667C0.111111 1.29111 0.0277774 1.1 0.0166663 0.873333C0.00555514 0.646666 0.0888886 0.444444 0.266666 0.266666C0.444444 0.0888886 0.641111 0 0.856667 0C1.07222 0 1.26889 0.0888886 1.44667 0.266666L10.19 9.01L18.9333 0.266666C19.0889 0.111111 19.2806 0.0277774 19.5083 0.0166663C19.7339 0.00555514 19.9356 0.0888886 20.1133 0.266666C20.2911 0.444444 20.38 0.641111 20.38 0.856667C20.38 1.07222 20.2911 1.26889 20.1133 1.44667L11.37 10.19L20.1133 18.9333C20.2689 19.0889 20.3522 19.2806 20.3633 19.5083C20.3744 19.7339 20.2911 19.9356 20.1133 20.1133C19.9356 20.2911 19.7389 20.38 19.5233 20.38C19.3078 20.38 19.1111 20.2911 18.9333 20.1133L10.19 11.37Z" fill="#F2F2F2"/>
</svg>
