<svg width="117" height="43" viewBox="0 0 117 43" fill="none" xmlns="http://www.w3.org/2000/svg">
<g clip-path="url(#clip0_142_332)">
<path d="M19.5 1.12C30.64 0.15 40.45 8.42 41.38 19.56C42.32 30.7 34.02 40.49 22.88 41.39C11.78 42.29 2.05001 34.04 1.11001 22.94C0.180008 11.84 8.40001 2.08 19.5 1.12Z" fill="#00C4CA" stroke="white" stroke-width="2.08"/>
<path d="M15.24 23.52C18.36 23.22 20.97 25.11 23.66 26.4C26.63 27.83 28.79 27.27 30.15 24.14C30.74 24.53 31.87 25.14 32.51 25.46C31.27 27.98 30.07 29.46 27.2 29.98C24.27 30.18 21.92 28.7 19.43 27.38C16.18 25.65 14 25.87 12.34 29.33C11.68 28.94 10.62 28.39 9.92999 28.07C11.14 25.5 12.33 24.03 15.23 23.52H15.24Z" fill="white"/>
<path d="M15.58 14.3C18.31 14.04 21.19 15.98 23.58 17.14C26.61 18.61 28.72 18.14 30.16 14.92C30.79 15.34 31.83 15.87 32.51 16.26C31.26 18.76 30.01 20.37 27.07 20.76C23.93 20.88 21.72 19.32 19.04 17.97C15.92 16.39 13.82 16.91 12.29 20.12C11.7 19.74 10.57 19.16 9.92999 18.84C11.17 16.23 12.55 14.56 15.57 14.3H15.58Z" fill="white"/>
<path d="M107.26 7.51C109.15 7.57 111.08 7.42 112.97 7.58C114.35 7.7 115.73 8.43 116.12 9.84C116.63 11.68 115.93 13.7 113.95 14.23C113.78 14.28 113.73 14.28 113.58 14.37C114.6 15.22 114.66 15.39 115.28 16.54C115.82 17.57 116.39 18.74 117 19.72C116.44 19.72 115.88 19.72 115.32 19.72L115.08 19.22C114.46 18.08 113.85 16.9 113.23 15.76C112.41 14.26 110.25 14.59 108.73 14.61V19.71H107.25V7.51H107.26ZM114.7 11.87C115.56 8.08 111.2 8.71 108.74 8.76C108.73 10.3 108.73 11.85 108.74 13.39C110.24 13.4 112.97 13.66 114.13 12.82C114.4 12.53 114.61 12.27 114.7 11.87Z" fill="white"/>
<path d="M71.76 7.51C73.64 7.58 75.41 7.45 77.41 7.57C80.73 7.77 81.85 11.49 79.81 13.8C78.9 14.82 77.25 14.9 75.91 14.9H73.23V19.74H71.74L71.75 7.51H71.76ZM77.43 8.86C76.1 8.66 74.61 8.74 73.25 8.75C73.23 10.38 73.23 12 73.25 13.63C74.79 13.64 77.43 13.91 78.61 13.01C79.9 11.62 79.44 9.16 77.43 8.85V8.86Z" fill="white"/>
<path d="M91.92 7.52H93.39C93.4 8.66 93.45 19.52 93.33 19.74H91.92V14.21C89.57 14.16 87.02 14.19 84.66 14.21V19.74H83.18V7.51H84.65V12.89H91.92V7.52Z" fill="white"/>
<path d="M61.16 7.52H69.01V8.77C67.14 8.68 64.58 8.77 62.65 8.77C62.62 10.13 62.65 11.54 62.65 12.9H68.67V14.16C68.15 14.12 67.25 14.16 66.71 14.16H63.02C62.86 14.16 62.86 14.16 62.7 14.21C62.58 14.62 62.65 17.86 62.66 18.48C64.63 18.42 67.01 18.48 69.02 18.48V19.73H61.16V7.52Z" fill="white"/>
<path d="M50 7.53C52.76 7.47 56.05 7.48 58.81 7.54C58.81 7.84 58.82 8.36 58.68 8.6C58.07 9.65 57.22 10.78 56.52 11.76C54.94 13.98 53.38 16.2 51.84 18.44H58.98C58.98 18.88 58.98 19.3 59 19.73C56.07 19.79 52.93 19.75 49.99 19.73C49.97 19.5 49.94 18.87 50.05 18.69C50.74 17.53 51.69 16.23 52.48 15.13C53.98 13.06 55.41 10.86 56.93 8.82C54.62 8.8 52.31 8.79 50.01 8.8C49.99 8.37 50.01 7.94 50.01 7.52L50 7.53Z" fill="white"/>
<path d="M94.98 7.5C95.51 7.53 96.14 7.52 96.67 7.52C97.79 9.2 99.16 11.03 100.35 12.68C100.87 12.04 101.49 11.13 101.98 10.44C102.66 9.49 103.41 8.47 104.04 7.5C104.62 7.5 105.14 7.52 105.73 7.49L102.72 11.74C102.23 12.4 101.58 13.12 101.26 13.87C100.88 14.75 101.07 18.53 101.07 19.73H99.59V16.31C99.59 15.68 99.65 14.99 99.54 14.37C99.36 13.35 95.78 8.72 94.96 7.5H94.98Z" fill="white"/>
<path d="M54.03 24.93C55.35 27.64 56.5 30.65 57.79 33.41H56.69C56.44 32.73 56.1 31.94 55.76 31.3H54.16H51.4C51.09 31.94 50.75 32.76 50.47 33.42H49.42C50.7 30.71 51.91 27.71 53.16 24.94H54.03V24.93ZM53.57 26.2C53.02 27.46 52.33 29.24 51.75 30.42L53.7 30.44L55.45 30.42C55.18 29.84 53.81 26.39 53.57 26.21V26.2Z" fill="white"/>
<path d="M69.01 24.94H69.92C69.97 27.71 69.94 30.63 69.92 33.42C69.61 33.43 69.17 33.5 68.96 33.23C67.72 31.67 66.56 30.04 65.36 28.46C64.89 27.84 64.36 27.18 63.97 26.51V33.42H63V24.94H63.84C65.54 27.04 67.35 29.58 69.01 31.76C68.99 31.42 68.99 31.08 68.99 30.75C69.01 28.81 68.96 26.87 69.03 24.93L69.01 24.94Z" fill="white"/>
<path d="M79.51 24.83C80.83 24.79 81.69 25.11 82.74 25.86L82.32 26.59C82.13 26.56 81.82 26.35 81.64 26.24C80.44 25.49 78.24 25.59 77.39 26.8C76.4 28.2 76.44 31.03 77.92 32.08C79 32.85 80.63 32.57 81.85 32.35C81.89 31.57 81.87 30.59 81.87 29.8H80.15C79.96 29.8 79.97 29.81 79.8 29.75C79.68 29.54 79.73 29.23 79.75 28.97C80.75 28.96 81.77 28.97 82.77 28.97V32.97C82.08 33.23 81.35 33.4 80.61 33.49C77.89 33.78 75.87 32.53 75.66 29.66C75.57 28.43 75.83 27.08 76.65 26.12C77.44 25.21 78.37 24.92 79.52 24.84L79.51 24.83Z" fill="white"/>
<path d="M88.71 24.94H94.16L94.13 25.81L89.73 25.83V28.67L93.89 28.69V29.52H89.88L89.81 29.55C89.65 29.77 89.72 32.08 89.73 32.52H94.15L94.13 33.4H88.7V24.93L88.71 24.94Z" fill="white"/>
<path d="M112.82 24.83C114.05 24.81 114.95 25.05 115.89 25.86C115.75 26.13 115.66 26.38 115.54 26.67C114.66 26.01 113.98 25.71 112.83 25.76C111.98 25.72 110.72 26.37 110.88 27.44C111.15 29.16 114.3 28.56 115.42 29.62C116.3 30.46 116.27 31.67 115.56 32.52C114.88 33.33 113.89 33.48 112.93 33.53C111.56 33.47 110.8 33.31 109.67 32.54C109.82 32.23 109.88 32.02 109.99 31.7C111.16 32.44 112.07 32.7 113.5 32.58C113.83 32.58 114.65 32.28 114.81 31.96C116.3 28.8 110.11 30.59 109.88 27.78C109.72 25.77 111.11 24.99 112.83 24.85L112.82 24.83Z" fill="white"/>
<path d="M99.71 24.94H100.73V32.5C102.17 32.5 103.6 32.5 105.04 32.52V33.41H99.7V24.93L99.71 24.94Z" fill="white"/>
</g>
<defs>
<clipPath id="clip0_142_332">
<rect width="117" height="43" fill="white"/>
</clipPath>
</defs>
</svg>
